# xmcd
#
# Track frame offsets: 
#        150
#        19440
#        36987
#        57785
#        75420
#        93557
#        113940
#        129305
#        147672
#        164785
#        180575
#        196665
#        221640
#        239754
#        256979
#        275326
#        292552
#        312458
#
# Disc length: 4430 seconds
#
# Revision: 2
# Processed by: cddbd v1.5.2PL0 Copyright (c) Steve Scherf et al.
# Submitted via: ExactAudioCopy v0.99pb4
#
DISCID=0c114c12
DTITLE=Craig David - Born To Do It
DYEAR=2000
DGENRE=R&B
TTITLE0=Fill Me In
TTITLE1=Can't Be Messing 'Round
TTITLE2=Rendezvous
TTITLE3=7 Days
TTITLE4=Follow Me
TTITLE5=Last Night
TTITLE6=Walking Away
TTITLE7=Time To Party
TTITLE8=Booty Man
TTITLE9=Once In A Lifetime
TTITLE10=You Know What
TTITLE11=Rewind
TTITLE12=Human
TTITLE13=Walking Away (Live In Amsterdam)
TTITLE14=No More (Guru and Craig David)
TTITLE15=Rendezvous (Blacksmith Mix)
TTITLE16=Rendezvous (Sunship vs Chunky Remix Edit)
TTITLE17=Fill me in (Artful Dodger Remix)
EXTD=
EXTT0=
EXTT1=
EXTT2=
EXTT3=
EXTT4=
EXTT5=
EXTT6=
EXTT7=
EXTT8=
EXTT9=
EXTT10=
EXTT11=
EXTT12=
EXTT13=
EXTT14=
EXTT15=
EXTT16=
EXTT17=
PLAYORDER=
